<svg xmlns="http://www.w3.org/2000/svg" width="359" height="103.523" viewBox="0 0 359 103.523"><defs><style>.a{fill:#6e8f60;}.b{fill:#c2deae;}.c{fill:#a0c391;}.d{fill:#ffb54d;}</style></defs><g transform="translate(-194.036 -552.363)"><g transform="translate(194.036 552.363)"><path class="a" d="M249.118,598.54c3.955,8.727,13.353,14.421,23.394,14.421,12.789,0,20.573-11.448,20.573-23.347,0-11.342-8.455-23.347-20.573-23.347-12.344,0-19.79,12.006-19.79,23.347h-.557c0-12.9,4.891-28.132,20.347-28.132,14.786,0,25.132,14.122,25.132,28.132,0,14.454-9.789,27.906-25.132,27.906-14.607,0-27.3-9.4-29.552-23.573a28.318,28.318,0,0,1-.358-4.559m0,0c0-18.124,9.563-37.025,29.91-37.025,19.79,0,34.357,18.237,34.357,37.251s-14.567,36.912-34.357,36.912-34.8-17.786-34.8-36.912h.557c0,19.345,15.456,32.353,34.244,32.353,17.235,0,29.8-15.895,29.8-32.353,0-16.233-12.788-32.692-29.8-32.692-17.792,0-25.351,16.9-25.351,32.466a22.09,22.09,0,0,0,1.958,9.151" transform="translate(52.131 -552.363)"/><path class="b" d="M195.427,608.734V553.8h15.9c15.231,0,20.454,14.454,20.454,27.462h-.445c-.106-11.561-7.559-22.9-20.009-22.9H199.986v45.811Z" transform="translate(-186.196 -544.241)"/><path class="a" d="M207.714,611.919h13.678c12.337,0,23.015-13.346,23.015-25.019,0-15.231-8.9-29.911-25.464-29.911H198.6v64.049l-4.559,4.559V552.43h25.02c19.345,0,29.8,16.572,29.8,34.357,0,14.793-11.9,29.691-27.462,29.691H203.155Z" transform="translate(-194.036 -551.985)"/><path class="c" d="M198.6,589.97h20.46c18.675,0,34.357-12.569,34.357-32.028h.445c0,19.458-14.9,36.587-34.8,36.587h-25.02Z" transform="translate(-194.036 -520.917)"/><path class="a" d="M213.793,556.989h-4.559v36.474c0,15.45,8.893,28.02,25.351,28.02,11.229,0,20.347-6.006,25.683-15.682,1.334-2.442,3.451-7,3.9-9.669h.445c0,16.12-14.123,30.017-30.136,30.017-17.009,0-29.8-16.233-29.8-32.466V552.43h13.678Z" transform="translate(-134.075 -551.985)"/><path class="b" d="M216.13,556.989v1.666c0,10.9-.113,27.356-4,36.693h-.558V552.43Z" transform="translate(-95.2 -551.985)"/><path class="c" d="M242.628,552.43h13.791v13.678c0,19.014-4.785,50.815-29.579,50.815-13.678,0-20.792-10.452-20.792-23.241V556.989l4.559-4.559v41.252c0,9.789,5.555,18.682,16.233,18.682,22.126,0,24.794-30.581,24.907-46.926v-8.449h-4.559" transform="translate(-126.331 -551.985)"/><path class="a" d="M270.581,552.43V625.6h-4.559l-41.139-68.608h-4.559v64.049h4.559l4.559,4.559H215.764V552.43H227.55l38.472,64.049V556.989Z" transform="translate(-71.567 -551.985)"/><path class="c" d="M231.082,556.989h-4.559V600.02l-4.559-7.785V552.43h13.678Z" transform="translate(-36.626 -551.985)"/><path class="b" d="M217.142,609.421v-54.93l35.8,59.489h-5.561L221.7,570.95V613.98Z" transform="translate(-63.8 -540.368)"/><path class="b" d="M280.339,567.966H265c-3.67-5.562-9.782-9.45-16.458-9.45-12.231,0-19.79,12.118-19.79,23.347h-.557c0-12.895,4.891-28.132,20.347-28.132,7.34,0,14.235,3.9,18.795,9.563H273Z" transform="translate(-1.528 -544.658)"/><path class="a" d="M285.241,598.506H263.447v4.559h15.012c-4.453,8.342-12.012,14.454-21.794,14.454-16.684,0-29.911-15.012-29.911-31.244,0-17.454,11.229-33.913,29.911-33.913,14.454,0,26.685,10.121,31.8,23.354l-7.333-4.672c-5.342-8.561-14.235-14.123-24.462-14.123-15.682,0-25.351,14.68-25.351,29.134,0,13.233,11.673,26.9,25.351,26.9,5,0,8.561-2.11,12.224-5.336h-10V593.948h32.021Z" transform="translate(-9.622 -552.363)"/><path class="c" d="M295.077,562.31c-2,17.46-16.233,32.578-34.244,32.578-19.79,0-34.8-17.786-34.8-36.912h.557c0,19.345,15.456,32.353,34.244,32.353,13.79,0,25.019-10.559,28.577-23.46Z" transform="translate(-13.697 -520.725)"/><path class="b" d="M262.821,566.384a9.722,9.722,0,0,0-8.86-5.462c-4.845,0-7.791,4.34-7.791,8.846,0,4.293,3.2,8.846,7.791,8.846,4.672,0,7.5-4.553,7.5-8.846h.206c0,4.884-1.852,10.658-7.7,10.658-5.6,0-9.523-5.349-9.523-10.658,0-5.475,3.71-10.572,9.523-10.572,5.535,0,10.34,3.557,11.2,8.926a11.318,11.318,0,0,1,.133,1.732m0,0c0,6.862-3.624,14.023-11.328,14.023-7.5,0-13.014-6.909-13.014-14.109s5.515-13.983,13.014-13.983,13.18,6.736,13.18,13.983h-.206c0-7.334-5.853-12.258-12.974-12.258-6.53,0-11.289,6.026-11.289,12.258,0,6.152,4.845,12.383,11.289,12.383,6.736,0,9.6-6.4,9.6-12.3a8.343,8.343,0,0,0-.743-3.471" transform="translate(70.377 -533.075)"/></g><g transform="translate(194.036 642.36)"><path class="d" d="M199.478,568.273c-1.208,0-1.951.557-1.951,1.467,0,2.4,6.889,1.042,6.889,6.019,0,2.071-1.666,3.69-5.037,3.69a8.257,8.257,0,0,1-5.342-1.845l1.666-2.045a5.937,5.937,0,0,0,3.756,1.586c1.427,0,2.124-.5,2.124-1.327,0-2.648-6.9-1.248-6.9-5.92,0-2.23,1.885-3.975,4.738-3.975,3.531,0,4.612,2.044,4.918,3.471l-2.548.624A2.134,2.134,0,0,0,199.478,568.273Z" transform="translate(-194.036 -565.924)"/><path class="d" d="M210.884,579.191H208.07l.02-6.982c0-.6.06-1.466.08-1.586l-.08-.02a10.017,10.017,0,0,1-.418,1.241l-3.192,7.426h-1.527l-3.272-7.506a8.127,8.127,0,0,1-.385-1.162l-.1.02a11.638,11.638,0,0,1,.1,1.586l.02,6.982h-2.787V565.945h3.033l3.232,7.021c.378.849.843,2.031.922,2.329h.08a21.748,21.748,0,0,1,.922-2.349l3.192-7h2.973Z" transform="translate(-179.984 -565.806)"/><path class="d" d="M208.145,576.364h-4.8l-.922,2.827h-2.907l4.692-13.246h3.073l4.679,13.246h-2.894Zm-.684-2.15-1.281-3.935a13.362,13.362,0,0,1-.4-1.507h-.06a11.111,11.111,0,0,1-.4,1.527l-1.267,3.915Z" transform="translate(-163.137 -565.806)"/><path class="d" d="M213.059,579.191a6.2,6.2,0,0,1-1.46.139c-4.035,0-2.933-4.672-5.926-4.672h-.6v4.533h-2.854V565.945h4.5c3.451,0,5.3,1.367,5.3,4.48a3.774,3.774,0,0,1-2.668,3.73c1.427.663,1.467,2.893,3.132,2.893a2.047,2.047,0,0,0,.4-.04Zm-6.723-6.543c1.706,0,2.874-.784,2.874-2.2,0-1.487-.969-2.25-2.655-2.25h-1.48v4.453Z" transform="translate(-147.896 -565.806)"/><path class="d" d="M208.511,568.294h-4.035v-2.349h10.917v2.349h-4.035v10.9h-2.847Z" transform="translate(-135.191 -565.806)"/><path class="d" d="M219.659,570.862l-2.635.4a2.7,2.7,0,0,0-2.728-2.867c-1.9,0-3.411,1.606-3.411,4.294,0,3.053,1.825,4.3,3.789,4.3a4.257,4.257,0,0,0,3.4-1.891l1.686,1.765a6.188,6.188,0,0,1-5.163,2.588c-3.936,0-6.583-2.568-6.583-6.762,0-4.134,2.608-6.762,6.245-6.762C218.232,565.924,219.659,568.731,219.659,570.862Z" transform="translate(-115.261 -565.924)"/><path class="d" d="M223.485,572.667c0,4.174-2.648,6.782-6.444,6.782s-6.464-2.608-6.464-6.782c0-4.134,2.674-6.743,6.464-6.743S223.485,568.532,223.485,572.667Zm-2.887,0c0-2.688-1.487-4.274-3.557-4.274s-3.57,1.586-3.57,4.274c0,2.708,1.506,4.294,3.57,4.294S220.6,575.375,220.6,572.667Z" transform="translate(-100.803 -565.924)"/><path class="d" d="M227.806,579.191H225l.02-6.982c0-.6.06-1.466.08-1.586l-.08-.02a11.566,11.566,0,0,1-.425,1.241l-3.192,7.426h-1.526l-3.272-7.506a8.738,8.738,0,0,1-.378-1.162l-.1.02a11.685,11.685,0,0,1,.1,1.586l.02,6.982h-2.794V565.945h3.033l3.232,7.021a24.937,24.937,0,0,1,.922,2.329h.08a23.289,23.289,0,0,1,.922-2.349l3.192-7h2.973Z" transform="translate(-84.604 -565.806)"/><path class="d" d="M226.963,570.644c0,3.132-2.19,4.7-5.183,4.7h-2.29v3.849h-2.847V565.945H221.4C224.872,565.945,226.963,567.511,226.963,570.644Zm-2.893,0c0-1.506-.982-2.449-2.953-2.449H219.49v4.9h1.752C223.047,573.092,224.069,572.23,224.069,570.644Z" transform="translate(-66.612 -565.806)"/><path class="d" d="M231.892,572.667c0,4.174-2.648,6.782-6.444,6.782s-6.464-2.608-6.464-6.782c0-4.134,2.674-6.743,6.464-6.743S231.892,568.532,231.892,572.667Zm-2.887,0c0-2.688-1.487-4.274-3.557-4.274s-3.571,1.586-3.571,4.274c0,2.708,1.507,4.294,3.571,4.294S229.005,575.375,229.005,572.667Z" transform="translate(-53.417 -565.924)"/><path class="d" d="M227.131,568.273c-1.208,0-1.951.557-1.951,1.467,0,2.4,6.889,1.042,6.889,6.019,0,2.071-1.666,3.69-5.044,3.69a8.251,8.251,0,0,1-5.336-1.845l1.666-2.045a5.92,5.92,0,0,0,3.756,1.586c1.42,0,2.124-.5,2.124-1.327,0-2.648-6.9-1.248-6.9-5.92,0-2.23,1.885-3.975,4.732-3.975,3.537,0,4.619,2.044,4.924,3.471l-2.555.624A2.132,2.132,0,0,0,227.131,568.273Z" transform="translate(-38.171 -565.924)"/><path class="d" d="M227.983,568.294h-4.028v-2.349h10.917v2.349h-4.035v10.9h-2.854Z" transform="translate(-25.398 -565.806)"/><path class="d" d="M226.453,565.945h2.794v13.246h-2.794Z" transform="translate(-11.318 -565.806)"/><path class="d" d="M239.164,579.191h-2.708l-4.281-6.384c-.518-.8-1.2-1.945-1.52-2.469l-.126.06a15.039,15.039,0,0,1,.106,2.389l.02,6.4H227.9V565.945h2.529l4.479,6.7c.684,1.022,1.287,2.11,1.507,2.509l.12-.06a20.215,20.215,0,0,1-.12-2.468l-.02-6.683h2.767Z" transform="translate(-3.151 -565.806)"/><path class="d" d="M242.337,579.31h-1.931a9.357,9.357,0,0,1-.2-1.46,4.352,4.352,0,0,1-3.69,1.6c-3.577,0-5.986-2.648-5.986-6.762,0-4.134,2.608-6.762,6.245-6.762,3.975,0,5.4,2.707,5.4,4.739l-2.615.4a2.57,2.57,0,0,0-2.747-2.668c-1.885,0-3.391,1.586-3.391,4.294,0,2.628,1.367,4.4,3.57,4.4,1.885,0,2.874-.969,2.933-2.435h-3.471v-1.805h5.88Z" transform="translate(11.667 -565.924)"/><path class="d" d="M239.779,568.273c-1.208,0-1.951.557-1.951,1.467,0,2.4,6.889,1.042,6.889,6.019,0,2.071-1.672,3.69-5.044,3.69a8.251,8.251,0,0,1-5.336-1.845L236,575.56a5.9,5.9,0,0,0,3.756,1.586c1.42,0,2.124-.5,2.124-1.327,0-2.648-6.909-1.248-6.909-5.92,0-2.23,1.891-3.975,4.738-3.975,3.537,0,4.619,2.044,4.918,3.471l-2.548.624A2.132,2.132,0,0,0,239.779,568.273Z" transform="translate(33.119 -565.924)"/><path class="d" d="M243.9,574.394v4.8h-2.847v-4.758l-4.5-8.488h3.073l2.23,4.453a9.219,9.219,0,0,1,.637,1.646h.06a9.549,9.549,0,0,1,.624-1.646l2.21-4.453h2.993Z" transform="translate(45.599 -565.806)"/><path class="d" d="M244.371,568.273c-1.208,0-1.951.557-1.951,1.467,0,2.4,6.888,1.042,6.888,6.019,0,2.071-1.666,3.69-5.044,3.69a8.25,8.25,0,0,1-5.336-1.845l1.666-2.045a5.921,5.921,0,0,0,3.756,1.586c1.42,0,2.124-.5,2.124-1.327,0-2.648-6.9-1.248-6.9-5.92,0-2.23,1.885-3.975,4.738-3.975,3.531,0,4.612,2.044,4.918,3.471l-2.555.624A2.131,2.131,0,0,0,244.371,568.273Z" transform="translate(59.002 -565.924)"/><path class="d" d="M245.23,568.294H241.2v-2.349h10.917v2.349h-4.035v10.9H245.23Z" transform="translate(71.774 -565.806)"/><path class="d" d="M246.547,568.294v3.053h5.137v2.223h-5.137v3.272h5.92v2.349h-8.773V565.945h8.773v2.349Z" transform="translate(85.854 -565.806)"/><path class="d" d="M260.323,579.191h-2.807l.02-6.982c0-.6.06-1.466.08-1.586l-.08-.02a10.275,10.275,0,0,1-.425,1.241l-3.192,7.426h-1.526l-3.272-7.506a8.734,8.734,0,0,1-.378-1.162l-.1.02a11.678,11.678,0,0,1,.1,1.586l.02,6.982h-2.794V565.945H249l3.232,7.021a24.92,24.92,0,0,1,.922,2.329h.08a23.314,23.314,0,0,1,.922-2.349l3.192-7h2.973Z" transform="translate(98.677 -565.806)"/></g></g></svg>